<svg width="28" height="28" viewBox="0 0 28 28" fill="none" xmlns="http://www.w3.org/2000/svg">
<path d="M12.4 14.2758C12.9891 14.2758 13.4667 14.7697 13.4667 15.3789V20.8968L13.4615 21.01C13.4101 21.5287 13.011 21.9418 12.5094 21.9946L12.4 22H7.06667L6.95729 21.9946C6.41972 21.938 6.00026 21.4677 6 20.8968V15.3789C6 14.7697 6.47756 14.2758 7.06667 14.2758H12.4ZM20.9333 14.2758C21.5224 14.2758 22 14.7697 22 15.3789V20.8968L21.9948 21.01C21.9435 21.5287 21.5443 21.9418 21.0427 21.9946L20.9333 22H15.6L15.4906 21.9946C14.9531 21.938 14.5336 21.4677 14.5333 20.8968V15.3789C14.5333 14.7697 15.0109 14.2758 15.6 14.2758H20.9333ZM7.28021 20.676H12.1865V15.5998H7.28021V20.676ZM15.8135 20.676H20.7198V15.5998H15.8135V20.676ZM12.4 6.00108C12.9891 6.00108 13.4667 6.49497 13.4667 7.10423V12.6221L13.4615 12.7353C13.4101 13.254 13.011 13.6671 12.5094 13.7199L12.4 13.7253H7.06667L6.95729 13.7199C6.41972 13.6633 6.00026 13.193 6 12.6221V7.10423C6 6.49497 6.47756 6.00108 7.06667 6.00108H12.4ZM20.9333 6C21.5224 6 22 6.4939 22 7.10315V12.6211L21.9948 12.7342C21.9437 13.2531 21.5445 13.666 21.0427 13.7188L20.9333 13.7242H15.6L15.4906 13.7188C14.9529 13.6622 14.5333 13.1921 14.5333 12.6211V7.10315C14.5333 6.4939 15.0109 6 15.6 6H20.9333ZM7.28021 12.4013H12.1865V7.32507H7.28021V12.4013ZM15.8135 12.4002H20.7198V7.324H15.8135V12.4002Z" fill="#3C3C3C"/>
</svg>
