<svg width="28" height="28" viewBox="0 0 28 28" fill="none" xmlns="http://www.w3.org/2000/svg">
<path d="M19.3809 7.69189C19.637 7.43617 20.0523 7.43596 20.3082 7.69189C20.564 7.94779 20.5638 8.36209 20.3082 8.61812L14.9269 13.9995L20.3082 19.3819C20.5638 19.6379 20.564 20.0522 20.3082 20.3081C20.0523 20.564 19.637 20.5639 19.3809 20.3081L13.9996 14.9268L8.61826 20.3081C8.36225 20.564 7.94803 20.564 7.69203 20.3081C7.43599 20.052 7.43599 19.6368 7.69203 19.3808L13.0723 13.9995L7.69203 8.61919C7.43599 8.36315 7.43599 7.94792 7.69203 7.69189C7.94804 7.43605 8.36227 7.43602 8.61826 7.69189L13.9996 13.0722L19.3809 7.69189Z" fill="#595959"/>
</svg>
