<svg width="36" height="36" viewBox="0 0 36 36" fill="none" xmlns="http://www.w3.org/2000/svg">
<path d="M21.6813 10.5C22.0825 10.5 22.4673 10.6674 22.7441 10.9642L28.5952 17.24C29.1519 17.8372 29.1318 18.7821 28.5508 19.3545L22.7355 25.0812L22.6295 25.1764C22.3715 25.3853 22.0505 25.5 21.7186 25.5H8.4667C7.65667 25.5 7 24.8287 7 24.0006V11.9994C7 11.1713 7.65667 10.5 8.4667 10.5H21.6813ZM8.76033 23.7004H21.5997L27.1185 18.265L21.5567 12.2996H8.76033V23.7004ZM19.4856 16.4801C20.3064 16.4801 20.9723 17.1609 20.9723 18C20.9723 18.8391 20.3064 19.5199 19.4856 19.5199C18.6651 19.5196 18.0003 18.8389 18.0003 18C18.0003 17.1611 18.6651 16.4804 19.4856 16.4801Z" fill="#595959"/>
</svg>
