<svg width="24" height="24" viewBox="0 0 24 24" fill="none" xmlns="http://www.w3.org/2000/svg">
<path d="M14.3711 5.00488C14.6081 5.02933 14.8299 5.13866 14.9951 5.31348L17.7266 8.20312C17.902 8.3887 17.9999 8.6343 18 8.88965V18C18 18.5523 17.5523 19 17 19H7C6.44772 19 6 18.5523 6 18V6C6 5.44772 6.44772 5 7 5H14.2686L14.3711 5.00488ZM7.2002 17.7998H16.7998V10.1084H14.1641C13.5566 10.1084 13.0646 9.61619 13.0645 9.00879V6.2002H7.2002V17.7998ZM14.3174 14.1211C14.5453 14.1677 14.7168 14.3696 14.7168 14.6113C14.7166 14.8528 14.5452 15.0551 14.3174 15.1016L14.2168 15.1113H9.7168C9.4408 15.1113 9.21703 14.8873 9.2168 14.6113C9.2168 14.3352 9.44065 14.1113 9.7168 14.1113H14.2168L14.3174 14.1211ZM14.3174 11.666C14.5453 11.7125 14.7168 11.9145 14.7168 12.1562C14.7168 12.3979 14.5453 12.6 14.3174 12.6465L14.2168 12.6562H9.7168C9.44068 12.6562 9.21684 12.4324 9.2168 12.1562C9.2168 11.8801 9.44065 11.6562 9.7168 11.6562H14.2168L14.3174 11.666ZM11.2168 9.20117C11.4929 9.20117 11.7168 9.42503 11.7168 9.70117C11.7168 9.97731 11.4929 10.2012 11.2168 10.2012H9.7168C9.44065 10.2012 9.2168 9.97731 9.2168 9.70117C9.2168 9.42503 9.44065 9.20117 9.7168 9.20117H11.2168ZM14.2637 8.9082H16.7422L14.2637 6.28613V8.9082Z" fill="#4453FF"/>
</svg>
