<svg width="36" height="36" viewBox="0 0 36 36" fill="none" xmlns="http://www.w3.org/2000/svg">
<path d="M18.2469 8.54047C18.7431 8.54089 19.1454 8.93471 19.1458 9.42046C19.1458 9.90653 18.7433 10.3 18.2469 10.3005H10.1989C9.86795 10.3005 9.59903 10.5642 9.59865 10.8881V25.9082C9.59865 26.2325 9.86772 26.4959 10.1989 26.4959H25.5423C25.8731 26.4955 26.1425 26.2322 26.1425 25.9082V14.8065C26.1432 14.3208 26.5451 13.9265 27.0415 13.9265C27.5375 13.9269 27.9397 14.321 27.9404 14.8065V25.9082C27.9404 27.2049 26.8667 28.2555 25.5423 28.2559H10.1989C8.87414 28.2559 7.80078 27.2051 7.80078 25.9082V10.8881C7.80116 9.59153 8.87437 8.54047 10.1989 8.54047H18.2469ZM24.1163 6.47233C24.403 6.18981 24.8676 6.18308 25.1631 6.45656L28.567 9.61538C28.8707 9.89744 28.8789 10.3689 28.5861 10.6616L21.1457 18.09C21.0432 18.1923 20.9124 18.2632 20.7694 18.2935L16.3202 19.2352L16.2177 19.2495C15.7149 19.2884 15.3027 18.8259 15.4373 18.3294L16.6086 14.0111C16.6422 13.887 16.7094 13.774 16.8018 13.6829L24.1163 6.47233ZM18.2761 14.7262L17.6144 17.1584L20.0813 16.6367L26.5525 10.1743L24.6697 8.42581L18.2761 14.7262Z" fill="#595959"/>
</svg>
