<svg width="36" height="36" viewBox="0 0 36 36" fill="none" xmlns="http://www.w3.org/2000/svg">
<path d="M17.9461 9.28461C18.4423 9.28503 18.8446 9.67885 18.845 10.1646C18.845 10.6507 18.4425 11.0442 17.9461 11.0446H9.89813C9.56717 11.0446 9.29824 11.3083 9.29787 11.6322V26.6524C9.29787 26.9766 9.56694 27.24 9.89813 27.24H25.2415C25.5724 27.2396 25.8418 26.9764 25.8418 26.6524V15.5507C25.8425 15.0649 26.2443 14.6707 26.7407 14.6707C27.2367 14.671 27.6389 15.0651 27.6396 15.5507V26.6524C27.6396 27.949 26.5659 28.9996 25.2415 29H9.89813C8.57336 29 7.5 27.9493 7.5 26.6524V11.6322C7.50038 10.3357 8.57359 9.28461 9.89813 9.28461H17.9461ZM23.8155 7.21647C24.1022 6.93395 24.5668 6.92722 24.8623 7.2007L28.2663 10.3595C28.5699 10.6416 28.5781 11.113 28.2853 11.4058L20.8449 18.8342C20.7424 18.9364 20.6117 19.0073 20.4687 19.0377L16.0194 19.9793L15.9169 19.9936C15.4141 20.0325 15.0019 19.57 15.1365 19.0735L16.3078 14.7552C16.3415 14.6311 16.4087 14.5181 16.5011 14.427L23.8155 7.21647ZM17.9754 15.4704L17.3136 17.9026L19.7805 17.3809L26.2517 10.9185L24.3689 9.16995L17.9754 15.4704Z" fill="#4453FF"/>
</svg>
