<svg width="36" height="36" viewBox="0 0 36 36" fill="none" xmlns="http://www.w3.org/2000/svg">
<path d="M17.9998 7.5C23.7987 7.5 28.4996 12.2009 28.4996 17.9998C28.4996 21.3574 26.921 24.3437 24.4684 26.2657L24.4699 26.2672H24.4684C22.6853 27.6643 20.4407 28.4996 17.9998 28.4996C15.5589 28.4996 13.3143 27.6643 11.5312 26.2672H11.5282V26.2643C9.07706 24.3422 7.5 21.3563 7.5 17.9998C7.5 12.2009 12.2009 7.5 17.9998 7.5ZM17.9983 21.5959C15.7187 21.5961 13.8212 23.2295 13.4105 25.3898C14.7429 26.2189 16.3149 26.6993 17.9998 26.6993C19.6835 26.6993 21.2543 26.2193 22.5861 25.3912C22.176 23.2301 20.2787 21.5959 17.9983 21.5959ZM17.9998 9.30026C13.195 9.30026 9.30026 13.195 9.30026 17.9998C9.30026 20.4152 10.2846 22.6006 11.8739 24.1769C12.743 21.6291 15.1562 19.7973 17.9983 19.7971C20.841 19.7971 23.2536 21.63 24.1227 24.1784C25.7134 22.6019 26.6993 20.4163 26.6993 17.9998C26.6993 13.195 22.8046 9.30026 17.9998 9.30026ZM17.9998 11.8212C20.0708 11.8212 21.7497 13.5001 21.7497 15.5711C21.7497 17.6422 20.0708 19.321 17.9998 19.321C15.9288 19.321 14.2499 17.6422 14.2499 15.5711C14.2499 13.5001 15.9288 11.8212 17.9998 11.8212ZM17.9998 13.6215C16.9229 13.6215 16.0501 14.4942 16.0501 15.5711C16.0501 16.6481 16.9229 17.5208 17.9998 17.5208C19.0767 17.5208 19.9495 16.6481 19.9495 15.5711C19.9495 14.4942 19.0767 13.6215 17.9998 13.6215Z" fill="#595959"/>
</svg>
