<svg width="44" height="44" viewBox="0 0 44 44" fill="none" xmlns="http://www.w3.org/2000/svg">
<path d="M27.2747 10.0064C27.6811 10.0483 28.0613 10.2358 28.3446 10.5355L33.0279 15.49C33.3286 15.8082 33.4966 16.2293 33.4967 16.6671V32.2875C33.4967 33.2344 32.7291 34.002 31.7822 34.002H14.6364C13.6895 34.002 12.9219 33.2344 12.9219 32.2875V11.7126C12.9219 10.7657 13.6895 9.99805 14.6364 9.99805H27.0989L27.2747 10.0064ZM14.9797 31.9442H31.4389V18.7568H26.9197C25.8783 18.7568 25.0346 17.9128 25.0344 16.8714V12.0559H14.9797V31.9442ZM27.0905 16.6989H31.3401L27.0905 12.2032V16.6989Z" fill="#595959"/>
<rect x="9.49609" y="20.0068" width="17.1378" height="9.6093" rx="1.71457" fill="#F94D25"/>
<path d="M21.0273 27.3824V22.5342H24.1345V23.2641H21.8979V24.59H23.9202V25.3199H21.8979V27.3824H21.0273Z" fill="white"/>
<path d="M17.9754 27.3824H16.3281V22.5342H18.0022C19.4487 22.5342 20.3259 23.4449 20.3259 24.9516C20.3259 26.465 19.4487 27.3824 17.9754 27.3824ZM17.1987 26.6257H17.9286C18.9397 26.6257 19.4554 26.0699 19.4554 24.9516C19.4554 23.84 18.9397 23.2909 17.9554 23.2909H17.1987V26.6257Z" fill="white"/>
<path d="M12.1562 27.3824V22.5342H13.9777C15.0893 22.5342 15.6853 23.2105 15.6853 24.1413C15.6853 25.0721 15.0826 25.7418 13.9643 25.7418H13.0268V27.3824H12.1562ZM13.0268 25.0253H13.8438C14.5 25.0253 14.7946 24.6569 14.7946 24.1413C14.7946 23.619 14.5 23.2641 13.8438 23.2641H13.0268V25.0253Z" fill="white"/>
</svg>
