<svg width="40" height="40" viewBox="0 0 40 40" fill="none" xmlns="http://www.w3.org/2000/svg">
<path d="M18.6826 9.5C23.7543 9.5 27.8667 13.5718 27.8667 18.5946L27.8549 19.0623C27.7483 21.1459 26.9323 23.0436 25.6429 24.5259L30.2208 28.9355C30.5827 29.284 30.5946 29.8601 30.246 30.2218C29.8975 30.5834 29.3212 30.5938 28.9594 30.2455L24.3177 25.7737C22.7617 26.9731 20.8069 27.6891 18.6826 27.6891C13.6112 27.6889 9.5 23.6172 9.5 18.5946C9.5 13.5719 13.6112 9.50024 18.6826 9.5ZM18.6826 11.3192C14.5997 11.3194 11.3196 14.5926 11.3196 18.5946C11.3196 22.5965 14.5997 25.8697 18.6826 25.8699C22.7657 25.8699 26.0471 22.5966 26.0471 18.5946C26.0471 14.5925 22.7657 11.3192 18.6826 11.3192Z" fill="#76767C"/>
</svg>
