<svg width="36" height="36" viewBox="0 0 36 36" fill="none" xmlns="http://www.w3.org/2000/svg">
<path d="M27.6128 10.2958C28.1026 10.296 28.4995 10.6917 28.4996 11.1802C28.4996 11.6689 28.1027 12.0644 27.6128 12.0646H25.7511V26.1402C25.7507 27.4432 24.6906 28.4996 23.384 28.4996H12.6098C11.3032 28.4996 10.2446 27.4432 10.2441 26.1402V12.0646H8.38678C7.8967 12.0646 7.5 11.669 7.5 11.1802C7.50009 10.6915 7.89676 10.2958 8.38678 10.2958H27.6128ZM12.0177 26.1402C12.0181 26.4656 12.2834 26.7293 12.6098 26.7293H23.384C23.7104 26.7293 23.9757 26.4656 23.9761 26.1402V12.0646H12.0177V26.1402ZM16.0414 15.088C16.5314 15.088 16.9281 15.4837 16.9281 15.9724V22.5997C16.9278 23.0881 16.5312 23.4841 16.0414 23.4841C15.5515 23.4841 15.155 23.0881 15.1546 22.5997V15.9724C15.1546 15.4837 15.5513 15.088 16.0414 15.088ZM19.9582 15.088C20.4483 15.088 20.845 15.4837 20.845 15.9724V22.5997C20.8446 23.0881 20.448 23.4841 19.9582 23.4841C19.4684 23.4841 19.0718 23.0881 19.0714 22.5997V15.9724C19.0714 15.4837 19.4681 15.088 19.9582 15.088ZM22.8063 7.5C23.2964 7.5 23.6931 7.89564 23.6931 8.3844C23.6929 8.87305 23.2963 9.26881 22.8063 9.26881H13.1933C12.7033 9.26877 12.3066 8.87302 12.3065 8.3844C12.3065 7.89567 12.7032 7.50004 13.1933 7.5H22.8063Z" fill="#4453FF"/>
</svg>
