<svg width="40" height="40" viewBox="0 0 40 40" fill="none" xmlns="http://www.w3.org/2000/svg">
<path d="M18.6826 9.49707C23.7543 9.49707 27.8667 13.5698 27.8667 18.5938L27.8549 19.0617C27.7483 21.1458 26.9323 23.0439 25.6429 24.5265L30.2208 28.9372C30.5827 29.2858 30.5946 29.862 30.246 30.2238C29.8975 30.5855 29.3212 30.5959 28.9594 30.2475L24.3177 25.7747C22.7617 26.9743 20.8069 27.6905 18.6826 27.6905C13.6112 27.6903 9.5 23.6176 9.5 18.5938C9.5 13.57 13.6112 9.49731 18.6826 9.49707ZM18.6826 11.3167C14.5997 11.317 11.3196 14.5909 11.3196 18.5938C11.3196 22.5967 14.5997 25.8707 18.6826 25.8709C22.7657 25.8709 26.0471 22.5968 26.0471 18.5938C26.0471 14.5908 22.7657 11.3167 18.6826 11.3167Z" fill="#76767C"/>
</svg>
