<svg width="28" height="28" viewBox="0 0 28 28" fill="none" xmlns="http://www.w3.org/2000/svg">
<path d="M16.3833 6.00601C16.9882 6.06919 17.4601 6.59363 17.4601 7.23077V10.7404L17.4542 10.8654C17.3971 11.4448 16.948 11.9049 16.3833 11.9639L16.2603 11.9712H14.7194V13.2608H18.3342C19.3944 13.2608 20.2533 14.1433 20.2535 15.2308V16.0288H21.8002L21.9232 16.0349C22.528 16.098 22.9999 16.6226 23 17.2596V20.7692L22.9941 20.8942C22.937 21.4736 22.4879 21.9338 21.9232 21.9928L21.8002 22H17.2797L17.1566 21.9928C16.592 21.9338 16.1428 21.4736 16.0857 20.8942L16.0798 20.7692V17.2596C16.08 16.6226 16.5518 16.098 17.1566 16.0349L17.2797 16.0288H18.8146V15.2308C18.8144 14.959 18.5992 14.738 18.3342 14.738H9.66346C9.39849 14.738 9.18321 14.959 9.18305 15.2308V16.0288H10.7203L10.8434 16.0349C11.4482 16.098 11.92 16.6226 11.9202 17.2596V20.7692L11.9143 20.8942C11.8572 21.4736 11.408 21.9338 10.8434 21.9928L10.7203 22H6.19984L6.07681 21.9928C5.51214 21.9338 5.06296 21.4736 5.00586 20.8942L5 20.7692V17.2596C5.00015 16.6226 5.47203 16.098 6.07681 16.0349L6.19984 16.0288H7.74417V15.2308C7.74433 14.1433 8.6033 13.2608 9.66346 13.2608H13.2782V11.9712H11.7397L11.6167 11.9639C11.052 11.9049 10.6029 11.4448 10.5458 10.8654L10.5399 10.7404V7.23077C10.5399 6.59363 11.0118 6.06919 11.6167 6.00601L11.7397 6H16.2603L16.3833 6.00601ZM6.44005 20.5228H10.4801V17.506H6.44005V20.5228ZM17.5199 20.5228H21.56V17.506H17.5199V20.5228ZM11.98 10.494H16.02V7.47716H11.98V10.494Z" fill="#909094"/>
</svg>
